<svg xmlns="http://www.w3.org/2000/svg" xmlns:xlink="http://www.w3.org/1999/xlink" xmlns:lucid="lucid" width="962.08" height="478.74"><g transform="translate(-567.9164353642199 -559.8461006800475)" lucid:page-tab-id="mXwzAnnOLpm1"><path d="M500 500h1500v1000H500z" fill="#fff"/><path d="M620.4 771.17c-.3 0-.4.16-.4.44v29c0 .27.1.43.4.43h3c.2 0 .4-.16.4-.48v-6.35l1.7-1.72 6.3 8.23c.1.2.3.3.6.3h3.8c.2 0 .3-.05.3-.17.1-.16 0-.32-.1-.44l-8.2-10.55 7.9-7.9c.1-.1.1-.2 0-.4 0-.16-.1-.2-.3-.2h-3.9c-.2 0-.4.08-.6.28l-7.5 7.82V771.6c0-.27-.2-.43-.4-.43zm75.2 0c-.3 0-.4.16-.4.44v29c0 .27.1.4.4.4h2.9c.3 0 .5-.13.5-.45V771.6c0-.27-.2-.43-.5-.43zm-50.8 9.78c-2.3 0-4.6.75-6.8 2.3-.2.25-.2.45-.1.6l1.5 2.25c.1.2.3.24.6.08 1.6-1.16 3.3-1.72 4.8-1.72 1.3 0 2.2.36 2.8 1.12.7.8 1 1.7.9 2.75-2.8.32-4.9.64-6.2 1.08-3.5 1-5.2 2.96-5.2 5.84 0 1.8.6 3.27 1.9 4.47 1.3 1.13 2.9 1.7 4.6 1.7 2 0 3.6-.5 4.9-1.45v.6c0 .32.1.44.4.44h3c.2 0 .4-.13.4-.45V788.4c0-2.78-.9-4.86-2.8-6.14-1.3-.87-2.8-1.3-4.7-1.3zm18 0c-2.8 0-4.9 1.12-6.5 3.35-1.3 1.88-1.9 4.15-1.9 6.87 0 2.83.7 5.15 2 7.02 1.6 2.15 3.7 3.2 6.5 3.2 2.2 0 4-.57 5.3-1.7V802c0 3.68-1.7 5.5-5.1 5.5-1.5 0-3.1-.78-4.7-2.46-.1-.08-.2-.12-.3-.12-.1 0-.2.04-.3.12l-2 2.07c-.2.27-.2.47 0 .67.6.48 1.1.88 1.5 1.24.4.33.8.6 1.1.8 1.5.85 3.1 1.3 4.7 1.3 2.8 0 5-.85 6.6-2.5 1.5-1.63 2.3-4.06 2.3-7.25v-19.57c0-.3-.1-.43-.4-.43h-3c-.2 0-.4.12-.4.43v.88c-1.4-1.15-3.2-1.7-5.3-1.7zm20.1 0c-2.9 0-5 1.12-6.6 3.35-1.3 1.88-1.9 4.15-1.9 6.87 0 2.83.7 5.15 2 7.02 1.6 2.15 3.7 3.2 6.5 3.2 2.2 0 4-.57 5.3-1.7V802c0 3.68-1.7 5.5-5.1 5.5-1.5 0-3.1-.78-4.7-2.46-.1-.08-.2-.12-.3-.12-.1 0-.2.04-.3.12l-2 2.07c-.2.27-.2.47 0 .67.6.48 1.1.88 1.5 1.24.5.33.8.6 1.1.8 1.5.85 3.1 1.3 4.7 1.3 2.9 0 5-.85 6.6-2.5 1.5-1.63 2.3-4.06 2.3-7.25v-19.57c0-.3-.1-.43-.4-.43h-3c-.2 0-.4.12-.4.43v.88c-1.4-1.15-3.2-1.7-5.3-1.7zm28.1 0c-2.8 0-5 .88-6.7 2.7-1.8 2-2.7 4.4-2.7 7.28 0 3.03.9 5.55 2.8 7.5 1.9 2 4.3 2.96 7.2 2.96 2.7 0 5.1-.77 7.1-2.37.2-.16.2-.36 0-.6l-2-2.1c-.2-.17-.4-.17-.6 0-1.3.9-2.7 1.34-4.2 1.34-1.8 0-3.3-.52-4.4-1.5-1.1-1-1.7-2.17-1.8-3.6h13.8c.3 0 .4-.17.4-.45l.1-.95c.1-2.96-.7-5.43-2.5-7.4-1.8-1.9-4-2.9-6.5-2.82zm-.1 3.35c1.3 0 2.5.44 3.5 1.36 1 .92 1.5 2.03 1.5 3.4h-10.2c.2-1.4.9-2.56 1.8-3.44 1-.88 2.1-1.32 3.4-1.32zm-47.6.44c2.6 0 4.2.96 4.9 2.83v7.23c-.7 1.84-2.4 2.8-5.1 2.8-1.3 0-2.3-.45-3.1-1.28-1.2-1.08-1.7-2.8-1.7-5.2 0-4.23 1.7-6.38 5-6.38zm20 0c2.6 0 4.2.96 4.9 2.83v7.23c-.7 1.84-2.4 2.8-5 2.8-1.3 0-2.4-.45-3.2-1.28-1.1-1.08-1.7-2.8-1.7-5.2 0-4.23 1.7-6.38 5-6.38zm-34.8 7.1v4.4c-1.2 1.23-2.8 1.75-4.8 1.6-.7-.05-1.3-.25-1.9-.7-.5-.35-.8-.86-.9-1.54-.2-1.12.5-2 1.9-2.6 1-.48 2.9-.88 5.7-1.15z" stroke="#000" stroke-opacity="0" stroke-width="20.83"/><path d="M900.5 815.98c-2.94 2.72-6.66 4.17-10.5 4.17s-7.56-1.45-10.5-4.17c-2.4-2.2-3.96-4.76-5.04-8.07h-8.34v19.13h47.76V807.9h-8.34c-1.02 3.15-2.76 5.96-5.04 8.08z" stroke="#000" stroke-opacity="0" stroke-width=".56" fill="#d9d9d9"/><path d="M873.62 790.3h32.76c.36 0 .66-.33.66-.75v-4.6c0-.42-.3-.76-.66-.76h-32.76c-.36 0-.66.33-.66.76v4.6c0 .4.3.75.66.75z" stroke="#000" stroke-opacity="0" stroke-width=".56"/><path d="M917.3 748.83h-54.6c-1.5 0-2.7 1.36-2.7 3.06v78.87c0 1.7 1.2 3.06 2.7 3.06h54.6c1.5 0 2.7-1.36 2.7-3.06V751.9c0-1.7-1.2-3.07-2.7-3.07zm-3.42 78.2h-47.76V807.9h8.34c1.02 3.15 2.76 5.96 5.04 8.08 2.94 2.72 6.66 4.17 10.5 4.17s7.56-1.45 10.5-4.17c2.28-2.12 4.02-4.93 5.04-8.07h8.34v19.13zm0-25.07h-12.66l-.42 2.38c-1.02 5.6-5.58 9.77-10.8 9.77-5.22 0-9.72-4.15-10.8-9.76l-.42-2.38h-12.66v-46.33h47.76v46.33z" stroke="#000" stroke-opacity="0" stroke-width=".56"/><path d="M873.62 775.1h32.76c.36 0 .66-.34.66-.77v-4.5c0-.43-.3-.77-.66-.77h-32.76c-.36 0-.66.34-.66.77v4.5c0 .43.3.77.66.77z" stroke="#000" stroke-opacity="0" stroke-width=".56"/><path d="M969.76 900c-15.18 0-14.28 6.66-14.28 6.66l.06 6.84h14.52v2.1h-20.34s-9.72-1.14-9.72 14.34c0 15.42 8.52 14.88 8.52 14.88h5.04v-7.14s-.24-8.58 8.4-8.58h14.4s8.1.12 8.1-7.86v-13.26s1.26-7.98-14.7-7.98zm-7.98 4.62c1.44 0 2.58 1.2 2.58 2.64 0 1.44-1.14 2.64-2.58 2.64-1.44 0-2.64-1.2-2.64-2.64 0-1.44 1.2-2.64 2.64-2.64z" stroke="#000" stroke-opacity="0" stroke-width="1.96" fill="url(#a)"/><path d="M970.24 960c15.18 0 14.28-6.66 14.28-6.66l-.06-6.84h-14.52v-2.1h20.34s9.72 1.14 9.72-14.34c0-15.42-8.52-14.88-8.52-14.88h-5.04v7.14s.24 8.58-8.4 8.58h-14.4s-8.1-.12-8.1 7.86v13.26s-1.26 7.98 14.7 7.98zm7.98-4.62c-1.44 0-2.58-1.2-2.58-2.64 0-1.44 1.14-2.64 2.58-2.64 1.44 0 2.64 1.2 2.64 2.64 0 1.44-1.2 2.64-2.64 2.64z" stroke="#000" stroke-opacity="0" stroke-width="1.96" fill="url(#b)"/><path d="M1146.16 900c18.68 0 33.84 13.74 33.84 30.78 0 13.56-9.68 25.08-23.15 29.16-1.7.3-2.3-.66-2.3-1.5 0-.96.07-4.32.07-8.4 0-2.88-1.08-4.74-2.3-5.7 7.5-.78 15.43-3.36 15.43-15.18 0-3.36-1.3-6.12-3.45-8.28.34-.78 1.5-3.9-.34-8.1 0 0-2.84-.84-9.34 3.12-2.7-.66-5.55-1.02-8.46-1.02-2.84 0-5.75.36-8.46 1.02-6.5-3.96-9.34-3.12-9.34-3.12-1.83 4.2-.68 7.32-.34 8.1-2.1 2.16-3.45 4.92-3.45 8.28 0 11.76 7.92 14.4 15.43 15.18-1 .78-1.9 2.16-2.16 4.14-1.9.78-6.84 2.16-9.88-2.58 0 0-1.77-2.94-5.15-3.18 0 0-3.3 0-.26 1.86 0 0 2.23.96 3.8 4.5 0 0 1.95 5.52 11.36 3.66.07 2.58.07 4.98.07 5.7 0 .84-.6 1.8-2.3 1.5-13.47-4.08-23.15-15.6-23.15-29.16 0-17.04 15.16-30.78 33.84-30.78" stroke="#000" stroke-opacity="0" stroke-width="25"/><path d="M1000 801.05v18.1c.17 9.53 16.64 17.18 42.23 17.18 25.6 0 42.07-7.65 42.24-17.2v-18.08H1000z" stroke="#000" stroke-opacity="0" stroke-width=".56" fill="#1b9bdb"/><path d="M1084.47 801.05c0 10-16.56 18.18-42.24 18.18-25.67 0-42.23-8.2-42.23-18.18 0-10.08 16.56-18.27 42.23-18.27 25.68 0 42.24 8.2 42.24 18.27z" stroke="#000" stroke-opacity="0" stroke-width=".56" fill="#fff"/><path d="M1000 782.87v16.02c.17 9.53 16.64 18.17 42.23 18.17 25.6 0 42.07-8.64 42.24-18.18v-16.03H1000z" stroke="#000" stroke-opacity="0" stroke-width=".56" fill="#1b9bdb"/><path d="M1084.47 782.78c0 10.08-16.56 18.27-42.24 18.27-25.67 0-42.23-8.2-42.23-18.27 0-10.08 16.56-18.18 42.23-18.18 25.68 0 42.24 8.1 42.24 18.18z" stroke="#000" stroke-opacity="0" stroke-width=".56" fill="#fff"/><path d="M1000 764.6v16.1c.17 9.46 16.64 18.2 42.23 18.2 25.6 0 42.07-8.74 42.24-18.2v-16.1H1000z" stroke="#000" stroke-opacity="0" stroke-width=".56" fill="#1b9bdb"/><path d="M1084.47 764.6c0 10-16.56 18.18-42.24 18.18-25.67 0-42.23-8.2-42.23-18.18 0-10.08 16.56-18.27 42.23-18.27 25.68 0 42.24 8.2 42.24 18.27z" stroke="#000" stroke-opacity="0" stroke-width=".56" fill="#3ed6ff"/><path d="M1214.64 736.05l-4.45-2.12c-3.92-1.84-5.88-2.76-7.97-2.76-2.1 0-4.04.92-7.95 2.76l-4.45 2.12c-3.96 1.88-6.27 2.96-7.7 4.44l20.1 9.07 20.1-9.08c-1.42-1.5-3.73-2.57-7.7-4.45zM1223.9 743.17l-20.02 9.04v18.97c1.6-.36 3.42-1.24 6.3-2.6l4.46-2.08c4.76-2.3 7.16-3.4 8.5-5.45 1.33-2.04 1.33-4.6 1.33-9.68v-.24c0-3.8 0-6.16-.58-7.96zM1200.55 771.17V752.2l-19.97-9.03c-.58 1.8-.58 4.16-.58 7.96v.24c0 5.08 0 7.64 1.33 9.68 1.34 2.04 3.74 3.16 8.5 5.44l4.45 2.07c2.88 1.36 4.7 2.24 6.27 2.6zM1214.64 838.7l-4.45-2.1c-3.92-1.85-5.88-2.77-7.97-2.77-2.1 0-4.04.92-7.95 2.76l-4.45 2.1c-3.96 1.9-6.27 2.97-7.7 4.45l20.1 9.08 20.1-9.08c-1.42-1.48-3.73-2.56-7.7-4.44zM1223.9 845.83l-20.02 9.04v18.96c1.6-.36 3.42-1.24 6.3-2.6l4.46-2.08c4.76-2.28 7.16-3.4 8.5-5.44 1.33-2.03 1.33-4.6 1.33-9.67v-.24c0-3.8 0-6.17-.58-7.97zM1200.55 873.83v-18.96l-19.97-9.04c-.58 1.8-.58 4.16-.58 7.96v.23c0 5.08 0 7.64 1.33 9.68 1.34 2.05 3.74 3.17 8.5 5.45l4.45 2.08c2.88 1.36 4.7 2.24 6.27 2.6zM1214.64 787.38l-4.45-2.12c-3.92-1.84-5.88-2.76-7.97-2.76-2.1 0-4.04.92-7.95 2.76l-4.45 2.12c-3.96 1.88-6.27 2.96-7.7 4.44l20.1 9.08 20.1-9.08c-1.42-1.48-3.73-2.56-7.7-4.44zM1223.9 794.5l-20.02 9.04v18.96c1.6-.36 3.42-1.24 6.3-2.6l4.46-2.08c4.76-2.28 7.16-3.4 8.5-5.44 1.33-2.04 1.33-4.6 1.33-9.68v-.24c0-3.8 0-6.16-.58-7.96zM1200.55 822.5v-18.96l-19.97-9.04c-.58 1.8-.58 4.16-.58 7.96v.24c0 5.08 0 7.64 1.33 9.68 1.34 2.04 3.74 3.16 8.5 5.44l4.45 2.08c2.88 1.36 4.7 2.24 6.27 2.6z" stroke="#000" stroke-opacity="0" stroke-width="25" fill="#1c274c"/><path d="M1348 745.8h84v45.87h-84z" stroke="#000" stroke-opacity="0" stroke-width=".56" fill="#fff"/><path d="M1431.1 745.07h1.8v1.44h-1.8zm-1.7 1.44h-1.8v-1.43h1.8v1.44zm-3.5 0h-1.8v-1.43h1.8v1.44zm-3.5 0h-1.8v-1.43h1.8v1.44zm-3.5 0h-1.8v-1.43h1.8v1.44zm-3.5 0h-1.8v-1.43h1.8v1.44zm-3.5 0h-1.8v-1.43h1.8v1.44zm-3.5 0h-1.8v-1.43h1.8v1.44zm-3.5 0h-1.8v-1.43h1.8v1.44zm-3.5 0h-1.8v-1.43h1.8v1.44zm-3.5 0h-1.8v-1.43h1.8v1.44zm-3.5 0h-1.8v-1.43h1.8v1.44zm-3.5 0h-1.8v-1.43h1.8v1.44zm-3.5 0h-1.8v-1.43h1.8v1.44zm-3.5 0h-1.8v-1.43h1.8v1.44zm-3.5 0h-1.8v-1.43h1.8v1.44zm-3.5 0h-1.8v-1.43h1.8v1.44zm-3.5 0h-1.8v-1.43h1.8v1.44zm-3.5 0h-1.8v-1.43h1.8v1.44zm-3.5 0h-1.8v-1.43h1.8v1.44zm-3.5 0h-1.8v-1.43h1.8v1.44zm-3.5 0h-1.8v-1.43h1.8v1.44zm-3.5 0h-1.8v-1.43h1.8v1.44zm-3.5 0h-1.8v-1.43h1.8v1.44zm-5.3-1.43h1.8v1.44h-1.8zm1.8 44.28h-1.8v-1.52h1.8v1.52zm0-3.04h-1.8v-1.5h1.8v1.5zm0-3.04h-1.8v-1.52h1.8v1.52zm0-3.04h-1.8v-1.52h1.8v1.52zm0-3.04h-1.8v-1.52h1.8v1.52zm0-3.13h-1.8v-1.52h1.8v1.52zm0-3.04h-1.8v-1.5h1.8v1.5zm0-3.03h-1.8v-1.52h1.8v1.52zm0-3.05h-1.8v-1.52h1.8v1.52zm0-3.12h-1.8v-1.52h1.8v1.52zm0-3.04h-1.8v-1.52h1.8v1.52zm0-3.04h-1.8v-1.53h1.8v1.52zm0-3.05h-1.8v-1.52h1.8v1.52zm0-3.12h-1.8v-1.52h1.8v1.52zm-1.8 41.4h1.8v1.44h-1.8zm82.3 1.44h-1.8v-1.45h1.8v1.44zm-3.5 0h-1.8v-1.45h1.8v1.44zm-3.5 0h-1.8v-1.45h1.8v1.44zm-3.5 0h-1.8v-1.45h1.8v1.44zm-3.5 0h-1.8v-1.45h1.8v1.44zm-3.5 0h-1.8v-1.45h1.8v1.44zm-3.5 0h-1.8v-1.45h1.8v1.44zm-3.5 0h-1.8v-1.45h1.8v1.44zm-3.5 0h-1.8v-1.45h1.8v1.44zm-3.5 0h-1.8v-1.45h1.8v1.44zm-3.5 0h-1.8v-1.45h1.8v1.44zm-3.5 0h-1.8v-1.45h1.8v1.44zm-3.5 0h-1.8v-1.45h1.8v1.44zm-3.5 0h-1.8v-1.45h1.8v1.44zm-3.5 0h-1.8v-1.45h1.8v1.44zm-3.5 0h-1.8v-1.45h1.8v1.44zm-3.5 0h-1.8v-1.45h1.8v1.44zm-3.5 0h-1.8v-1.45h1.8v1.44zm-3.5 0h-1.8v-1.45h1.8v1.44zm-3.5 0h-1.8v-1.45h1.8v1.44zm-3.5 0h-1.8v-1.45h1.8v1.44zm-3.5 0h-1.8v-1.45h1.8v1.44zm-3.5 0h-1.8v-1.45h1.8v1.44zm78.7-1.45h1.8v1.44h-1.8zm1.8-1.6h-1.8v-1.52h1.8v1.52zm0-3.04h-1.8v-1.5h1.8v1.5zm0-3.04h-1.8v-1.52h1.8v1.52zm0-3.04h-1.8v-1.52h1.8v1.52zm0-3.04h-1.8v-1.52h1.8v1.52zm0-3.13h-1.8v-1.52h1.8v1.52zm0-3.04h-1.8v-1.5h1.8v1.5zm0-3.03h-1.8v-1.52h1.8v1.52zm0-3.05h-1.8v-1.52h1.8v1.52zm0-3.12h-1.8v-1.52h1.8v1.52zm0-3.04h-1.8v-1.52h1.8v1.52zm0-3.04h-1.8v-1.53h1.8v1.52zm0-3.05h-1.8v-1.52h1.8v1.52zm0-3.12h-1.8v-1.52h1.8v1.52z" stroke="#000" stroke-opacity="0" stroke-width=".56" fill="#0a0408"/><path d="M1354.4 752.1h72v42.3h-72z" stroke="#000" stroke-opacity="0" stroke-width=".56" fill="#ebb866"/><path d="M1340.9 791.5h98.2v7.86h-98.2z" stroke="#000" stroke-opacity="0" stroke-width=".56" fill="#fff"/><path d="M1440 800.08h-100v-9.3h100v9.3zm-98.2-1.52h96.4v-6.33h-96.4v6.33z" stroke="#000" stroke-opacity="0" stroke-width=".56" fill="#0a0408"/><path d="M1368 742.18h9.4v29.7h-9.4z" stroke="#000" stroke-opacity="0" stroke-width=".56" fill="#55b7a8"/><path d="M1378.3 772.7h-11.2v-31.32h11.2v31.3zm-9.4-1.53h7.6V742.9h-7.6v28.27z" stroke="#000" stroke-opacity="0" stroke-width=".56" fill="#0a0408"/><path d="M1385.9 724.64h9.4v47.25h-9.4z" stroke="#000" stroke-opacity="0" stroke-width=".56" fill="#dc444a"/><path d="M1396.2 772.7H1385v-48.86h11.2v48.85zm-9.4-1.53h7.6v-45.8h-7.6v45.8z" stroke="#000" stroke-opacity="0" stroke-width=".56" fill="#0a0408"/><path d="M1403.8 733.53h9.5v38.36h-9.5z" stroke="#000" stroke-opacity="0" stroke-width=".56" fill="#68a4d9"/><path d="M1414.2 772.7H1403v-39.9h11.2v39.9zm-9.5-1.53h7.7v-36.84h-7.7v36.84z" stroke="#000" stroke-opacity="0" stroke-width=".56" fill="#0a0408"/><path d="M1368 739.78h9.4v10.33h-9.4z" stroke="#000" stroke-opacity="0" stroke-width=".56" fill="#fff"/><path d="M1378.3 750.83h-11.2v-11.77h11.2v11.77zm-9.4-1.44h7.6v-8.82h-7.6v8.8z" stroke="#000" stroke-opacity="0" stroke-width=".56" fill="#0a0408"/><path d="M1385.9 720.72h9.4v10.33h-9.4z" stroke="#000" stroke-opacity="0" stroke-width=".56" fill="#fff"/><path d="M1396.2 731.77H1385V720h11.2v11.77zm-9.4-1.44h7.6v-8.8h-7.6v8.8z" stroke="#000" stroke-opacity="0" stroke-width=".56" fill="#0a0408"/><path d="M1403.8 731.85h9.5v10.33h-9.5z" stroke="#000" stroke-opacity="0" stroke-width=".56" fill="#fff"/><path d="M1414.2 742.9H1403v-11.77h11.2v11.77zm-9.5-1.52h7.7v-8.8h-7.7v8.8zM1368 780.14h.9v1.52h-.9zm42.6 1.52h-1.7v-1.52h1.7v1.52zm-3.5 0h-1.7v-1.52h1.7v1.52zm-3.4 0h-1.8v-1.52h1.8v1.52zm-3.5 0h-1.8v-1.52h1.8v1.52zm-3.5 0h-1.7v-1.52h1.7v1.52zm-3.5 0h-1.7v-1.52h1.7v1.52zm-3.5 0h-1.7v-1.52h1.7v1.52zm-3.4 0h-1.8v-1.52h1.8v1.52zm-3.5 0h-1.8v-1.52h1.8v1.52zm-3.5 0h-1.7v-1.52h1.7v1.52zm-3.5 0h-1.7v-1.52h1.7v1.52zm-3.5 0h-1.7v-1.52h1.7v1.52zm40.1-1.52h.9v1.52h-.9z" stroke="#000" stroke-opacity="0" stroke-width=".56" fill="#0a0408"/><path d="M1345.1 743.38h5.7v4.8h-5.7z" stroke="#000" stroke-opacity="0" stroke-width=".56" fill="#dc444a"/><path d="M1351.7 748.9h-7.5v-6.24h7.5v6.25zm-5.7-1.5h3.9v-3.22h-3.9v3.2z" stroke="#000" stroke-opacity="0" stroke-width=".56" fill="#0a0408"/><path d="M1429.3 743.38h5.6v4.73h-5.6z" stroke="#000" stroke-opacity="0" stroke-width=".56" fill="#dc444a"/><path d="M1435.8 748.83h-7.4v-6.25h7.4v6.25zm-5.7-1.52h3.9v-3.2h-3.9v3.2zM1385.8 906.5l-1.2-1.2 1.2-1.3 1.3 1.3-1.3 1.2zm2.2-.9l-1.3-1.2 1.3-1.3 1.2 1.3-1.2 1.2zm-4.7-1.6l-1.3-1.3 1.3-1.2 1.3 1.2-1.3 1.3zm7.2-.9l-1.3-1.3 1.3-1.2 1.3 1.2-1.3 1.3zm-9.7-1.6l-1.3-1.3 1.3-1.3 1.2 1.3-1.2 1.3zm12.2-.9l-1.2-1.3 1.2-1.3 1.3 1.3-1.3 1.3zm-14.8-1.7l-1.2-1.2 1.2-1.3 1.3 1.3-1.3 1.2zm17.4-.9l-1.3-1.2 1.3-1.3 1.2 1.3-1.2 1.2zm-19.9-1.6l-1.3-1.3 1.3-1.2 1.3 1.2-1.3 1.3zm22.4-.9l-1.3-1.2 1.3-1.3 1.3 1.3-1.3 1.2zm-24.9-1.6l-1.3-1.3 1.3-1.2 1.2 1.2-1.2 1.3zm27.4-.9l-1.2-1.3 1.2-1.2 1.3 1.2-1.3 1.3zm-30-1.6l-1.2-1.3 1.2-1.3 1.3 1.3-1.3 1.3zm32.5-.9l-1.2-1.3 1.2-1.3 1.3 1.3-1.3 1.3zm-35-1.7l-1.2-1.2 1.2-1.3 1.3 1.3-1.3 1.2zm37.6-.9l-1.3-1.2 1.3-1.3 1.2 1.3-1.2 1.2zm-40.1-1.6l-1.3-1.3 1.3-1.2 1.3 1.2-1.3 1.3zm42.6-.9l-1.3-1.3 1.3-1.2 1.3 1.2-1.3 1.3zm-45.1-1.6l-1.3-1.3 1.3-1.3 1.2 1.3-1.2 1.3zm47.6-.9l-1.2-1.3 1.2-1.3 1.3 1.3-1.3 1.3zm-50.2-1.7l-1.2-1.2 1.2-1.3 1.3 1.3-1.3 1.2zm52.8-.9l-1.3-1.2 1.3-1.3 1.2 1.3-1.2 1.2zm-55.3-1.6l-1.3-1.3 1.3-1.2 1.3 1.2-1.3 1.3zm57.8-.9l-1.3-1.2 1.3-1.3 1.3 1.3-1.3 1.2zm-60.3-1.6l-1.3-1.3 1.3-1.2 1.2 1.2-1.2 1.3zm62.8-.9l-1.2-1.3 1.2-1.2 1.3 1.2-1.3 1.3zm-65.4-1.6l-1.2-1.3 1.2-1.3 1.3 1.3-1.3 1.3zm67.9-.9l-1.2-1.3 1.2-1.3 1.3 1.3-1.3 1.3zm-70.4-1.7l-1.2-1.2 1.2-1.3 1.3 1.3-1.3 1.2zm73-.9l-1.3-1.2 1.3-1.3 1.2 1.3-1.2 1.2zm-75.5-1.6l-1.3-1.3 1.3-1.2 1.3 1.2-1.3 1.3zm78-.9l-1.3-1.3 1.3-1.2 1.3 1.2-1.3 1.3zm-80.5-1.6l-1.5-1.4 1.2-1.2.6.7.1-.2.8.8-1.2 1.3zm83-.9l-1.2-1.3 1.2-1.3 1.3 1.3-1.3 1.3zm-80.8-1.7l-1.3-1.2 1.3-1.3 1.3 1.3-1.3 1.2zm83.4-.9l-1.3-1.2 1.3-1.3 1.2 1.3-1.2 1.2zm-80.9-1.6l-1.2-1.3 1.2-1.2 1.3 1.2-1.3 1.3zm83.4-.9l-1.3-1.2 1.3-1.3 1.3 1.3-1.3 1.2zm-80.9-1.6l-1.2-1.3 1.2-1.3 1.3 1.3-1.3 1.3zm81-.9l-1.3-1.3 1.3-1.2 1.2 1.2-1.2 1.3zm-78.4-1.7l-1.3-1.2 1.3-1.3 1.2 1.3-1.2 1.2zm75.8-.8l-1.2-1.3 1.2-1.3 1.3 1.3-1.3 1.3zm-73.3-1.7l-1.3-1.2 1.3-1.3 1.3 1.3-1.3 1.2zm70.8-.9l-1.3-1.2 1.3-1.3 1.3 1.3-1.3 1.2zm-68.3-1.6l-1.2-1.3 1.2-1.2 1.3 1.2-1.3 1.3zm65.8-.9l-1.3-1.3 1.3-1.2 1.2 1.2-1.2 1.3zm-63.2-1.6l-1.3-1.3 1.3-1.3 1.2 1.3-1.2 1.3zm60.6-.9l-1.2-1.3 1.2-1.3 1.3 1.3-1.3 1.3zm-58.1-1.7l-1.3-1.2 1.3-1.3 1.3 1.3-1.3 1.2zm55.6-.9l-1.2-1.2 1.2-1.3 1.3 1.3-1.3 1.2zm-53.1-1.6l-1.2-1.3 1.2-1.2 1.3 1.2-1.3 1.3zm50.6-.9l-1.3-1.2 1.3-1.3 1.3 1.3-1.3 1.2zm-48.1-1.6l-1.2-1.3 1.2-1.3 1.3 1.3-1.3 1.3zm45.6-.9l-1.3-1.3 1.3-1.2 1.2 1.2-1.2 1.3zm-43-1.7l-1.3-1.2 1.3-1.3 1.2 1.3-1.2 1.2zm40.4-.8l-1.2-1.3 1.2-1.3 1.3 1.3-1.3 1.3zm-37.9-1.7l-1.3-1.2 1.3-1.3 1.3 1.3-1.3 1.2zm35.4-.9l-1.3-1.2 1.3-1.3 1.3 1.3-1.3 1.2zm-32.9-1.6l-1.2-1.3 1.2-1.2 1.3 1.2-1.3 1.3zm30.4-.9l-1.3-1.3 1.3-1.2 1.2 1.2-1.2 1.3zm-27.8-1.6l-1.3-1.3 1.3-1.3 1.2 1.3-1.2 1.3zm25.2-.9l-1.2-1.3 1.2-1.3 1.3 1.3-1.3 1.3zm-22.7-1.7l-1.3-1.2 1.3-1.3 1.3 1.3-1.3 1.2zm20.2-.9l-1.2-1.2 1.2-1.3 1.3 1.3-1.3 1.2zm-17.7-1.6l-1.2-1.3 1.2-1.2 1.3 1.2-1.3 1.3zm15.2-.9l-1.3-1.3 1.3-1.2 1.3 1.2-1.3 1.3zm-12.7-1.6l-1.2-1.3 1.2-1.3 1.3 1.3-1.3 1.3zm10.2-.9l-1.3-1.3 1.3-1.2 1.2 1.2-1.2 1.3zm-7.6-1.7l-1.3-1.2 1.3-1.3 1.2 1.3-1.2 1.2zm5-.9l-1.2-1.2 1.2-1.3 1.3 1.3-1.3 1.2zm-2.5-1.6l-1.3-1.2 1.8-1.8.8.9-.7.6.5.4-1.1 1.1z" stroke="#000" stroke-opacity="0" stroke-width=".56" fill="#0a0408"/><path d="M1376.2 826.9h43v68.4h-58.4v-53" stroke="#000" stroke-opacity="0" stroke-width=".56" fill="#fff"/><path d="M1420.1 896.2h-60.2v-53.9h1.8v52.1h56.6v-66.6h-42.1V826h43.9z" stroke="#000" stroke-opacity="0" stroke-width=".56" fill="#0a0408"/><path d="M1379.6 832.8h34.5v55h-46.9v-42.6" stroke="#000" stroke-opacity="0" stroke-width=".56" fill="#55b7a8"/><path d="M1376.7 826.9v15.4h-15.4z" stroke="#000" stroke-opacity="0" stroke-width=".56" fill="#fff"/><path d="M1376.7 843.2h-15.4c-.4 0-.7-.2-.8-.5-.2-.4-.1-.8.2-1l15.4-15.4c.2-.3.6-.3.9-.2.4.1.6.5.6.8v15.4c0 .5-.4.9-.9.9zm-13.2-1.8h12.3v-12.3l-12.3 12.3zm19.3 2.8h19.6v1.8h-19.6zm-5.6 10.1h25.6v1.8h-25.6zm0 11.2h25.6v1.8h-25.6zm0 11.3h25.6v1.8h-25.6z" stroke="#000" stroke-opacity="0" stroke-width=".56" fill="#0a0408"/><path d="M1393.6 812.4l3.9 3.9-3.9 4-4-4z" stroke="#000" stroke-opacity="0" stroke-width=".56" fill="#dc444a"/><path d="M1393.6 821.5l-5.3-5.2 5.3-5.2 5.2 5.2-5.2 5.2zm-2.7-5.2l2.7 2.7 2.6-2.7-2.6-2.7-2.7 2.7z" stroke="#000" stroke-opacity="0" stroke-width=".56" fill="#0a0408"/><path d="M1434.8 853.6l3.9 3.9-3.9 4-4-4z" stroke="#000" stroke-opacity="0" stroke-width=".56" fill="#dc444a"/><path d="M1434.8 862.8l-5.2-5.3 5.2-5.2 5.2 5.2-5.2 5.3zm-2.7-5.3l2.7 2.7 2.7-2.7-2.7-2.6-2.7 2.6z" stroke="#000" stroke-opacity="0" stroke-width=".56" fill="#0a0408"/><path d="M1345.2 860.7l4 4-4 3.9-3.9-3.9z" stroke="#000" stroke-opacity="0" stroke-width=".56" fill="#dc444a"/><path d="M1345.2 869.9l-5.2-5.2 5.2-5.3 5.2 5.3-5.2 5.2zm-2.7-5.2l2.7 2.6 2.7-2.6-2.7-2.7-2.7 2.7z" stroke="#000" stroke-opacity="0" stroke-width=".56" fill="#0a0408"/><path d="M1386.5 901.9l3.9 4-3.9 3.9-4-3.9z" stroke="#000" stroke-opacity="0" stroke-width=".56" fill="#dc444a"/><path d="M1386.4 911.1l-5.2-5.2 5.2-5.2 5.3 5.2-5.3 5.2zm-2.6-5.2l2.6 2.7 2.7-2.7-2.7-2.7-2.6 2.7z" stroke="#000" stroke-opacity="0" stroke-width=".56" fill="#0a0408"/><path d="M860.94 630.56l1.38.24 1.38.4.92.64.92.88.92.88.46 1.04V656.08l-.46 1.04-.92.88-.92.8-1.38.64-.92.4-1.84.16-1.38-.08-1.38-.4-1.38-.56-.92-.72-.92-.88-.46-1.04v-12.16l-12.42 5.44-.92.32-1.38.24-.92.08h-.92l-.92-.16-.92-.32-.92-.4-.92-.48-.92-.56-.46-.56-.46-.72v-.72l-.46-.8.46-.8v-.8l.46-.72.46-.72.46-.56.92-.56.46-.4 22.54-9.76 1.38-.48 1.84-.16zm24.38.08l1.38.4.46.16 22.08 9.76.92.48.92.56.46.64.46.64.46.8V646.4l-.46.8v.56l-.92.64-.46.56-.92.48-.92.4-.92.24-.92.16h-1.38l-.92-.08-.92-.32-.92-.24-12.42-5.44V656.08l-.46 1.04-.92.88-.92.8-.92.64-1.38.4-1.38.16h-.46l-1.38-.08-1.38-.4-1.38-.56-.92-.72-.46-.88-.92-1.04v-21.84l.46-1.04.92-.96.92-.72 1.38-.64 1.38-.4.92-.16zm244.72-38.16l.92.24.46.48.46.64.46.64-.46.64-.46.64-.46.4-.92.32-.46.08H1127.28l-.46.08h-.46l-.46.08-.46.08-.92.24-.46.32v.08l-.46.32v.4l-.46.56v.16l-.46 3.04v2.96h4.6l.92.08.92.32.46.48.46.56v1.12l-.46.48v.4l-.46.16-.46.24-.46.24-.46.16h-5.06v24.96l-.46.64-.92.4-.46.32H1119.46l-.46-.16-.46-.24-.46-.16-.46-.4v-.4l-.46-.48V609.12h-4.14l-.46-.08-.92-.16-.46-.32v-.16l-.46-.32-.46-.48V606.24l.46-.56.92-.48.46-.24.92-.08h4.14v-2.96l.92-4.08.92-2 .92-1.2 1.38-.96 2.3-.8v-.08l3.68-.48H1129.58zm67.62-.16l.92.32.46.48.46.56v27.28l21.62-15.84.46-.32.46-.24.46-.08h.46l.46.08.46.16.92.24v.16l.46.4.46.4v1.12l-.46.48-.46.4v.16l-14.26 10.48 14.26 13.36.46.4.46.48v.96l-.46.48-.46.4v.32l-.92.24-.46.16h-.92l-.92-.16-.46-.24-.46-.4-14.26-12.96-6.9 5.28v7.04l-.46.64-.46.4-.92.32-.92.08-.46-.08-.46-.16-.92-.24v-.16l-.46-.32v-.48l-.46-.48V593.84l.46-.48.46-.4v-.08l.46-.32.46-.24.92-.08zm-12.42 12.56l.46.16.46.24v.08l.46.4.46.4V633.76l-.46.48v.4l-.46.08-.46.32-.46.24-.46.08h-.46l-.46-.08-.46-.16-.92-.24v-.16l-.46-.32v-.48l-.46-.48v-2.72l-1.38 1.12-1.38.96-1.84.8-1.84.64-1.84.56-1.84.32-1.84.16-1.38.08-1.84-.08-2.3-.24-1.84-.32-1.38-.56-1.84-.72-1.84-.8-1.38-.96-1.38-.8-.92-1.2-1.38-1.28-.92-1.36-.92-1.44-.46-1.52-.46-1.52-.46-1.6v-.88l.46-1.6v-1.6l.46-1.52.92-1.52.92-1.36.92-1.36 1.38-1.2.46-.64 1.84-1.04 1.38-.96 1.84-.72 1.38-.72 1.84-.48 1.84-.32 2.3-.16 1.38-.08 1.84.08 1.84.24 1.84.4 1.84.48 1.84.72 1.38.8 1.84.96.92.88v-2.96l.46-.48.46-.4v-.16l.46-.24.46-.24.92-.08zm-18.86 4.08l-1.84.32-1.84.56-1.84.8-1.38.96-.92.56-1.38 1.2-.92 1.28-.92 1.44-.46 1.6-.46 1.6v.8l.46 1.68v1.52l.92 1.52.92 1.36 1.38 1.28.46.56 1.38 1.04 1.84.88 1.84.64 1.84.4 1.84.24h.92l1.84-.08 1.84-.32 1.84-.56 1.84-.72 1.38-.96.92-.56.92-1.2 1.38-1.28.46-1.44.92-1.52v-4.16l-.46-1.52-.46-1.52-.92-1.36-1.38-1.28-.46-.56-1.84-1.12-1.38-.8-1.84-.64-1.84-.48-1.84-.24h-.92zm-24.84-16.64l.92.32.46.48.46.56v40.24l-.46.64-.46.4-.92.32-.92.08-.46-.08-.92-.16-.46-.24v-.16l-.46-.32-.46-.48v-40.08l.46-.48v-.4l.46-.08.46-.32.46-.24.46-.08h.46zm107.18 12.56l1.84.24 2.3.4 1.84.56 1.84.72 1.38.88 1.84 1.04v.24l1.84 1.2.92 1.28 1.38 1.44.92 1.52.46 1.68.46 1.68.46 1.28v.8l-.46.4-.46.4v.08l-.46.32-.46.16-.92.08h-30.82l.46 1.2.46 1.12.46 1.04.46 1.04.92.96.92.88.92.8.92.72 1.38.64 1.38.48 1.38.48 1.38.24.92.24 1.84.08h1.84l2.3-.16 2.3-.64 2.3-.8 3.22-2.16 1.84-1.84.46-.48.46-.32.46-.16.46-.08h.46l.46.08.46.16.46.08.46.4.46.4v2.08l-3.22 2.96-3.22 2.16-.46.24-2.76 1.12-2.3.64-2.76.4-1.84.08h-1.84l-1.84-.08-1.84-.24-1.84-.4-1.84-.56-1.84-.72-1.84-.8-1.38-.96-1.38-.72-.92-1.2-1.38-1.28-.92-1.36-.92-1.44-.46-1.44-.46-1.52-.46-1.6v-2.48l.46-1.6.46-1.52.92-1.44.92-1.36.92-1.36 1.38-1.2.92-.8 1.38-1.04 1.38-.88 1.84-.8 1.84-.64 1.84-.56 1.84-.32 1.84-.16 1.84-.08zm-3.68 4.08l-1.38.24-1.38.24-1.38.4-.92.48-1.38.64-.92.64-1.38.8-.92.88-.92 1.04-.46 1.04-.46 1.12-.46.64h27.14l-.46-1.12-.92-1.04-.46-1.04-.92-.96-.92-.8-1.38-.8-.92-.72-1.38-.56-1.38-.4-1.38-.4-1.38-.24-1.38-.08h-.46zm-252.08-4.08l1.38.16 1.38.24 1.38.32 1.38.4.92.48 1.38.64.92.64 1.38.72.92.8.92.88.46.88.92.96.46.96.46 1.04.46 1.04V634.24l-.46.4v.16l-.46.24-.92.24-.46.08h-.46l-.46-.08-.46-.16-.46-.24-.46-.08-.46-.4v-17.04l-.46-1.52-.46-1.44-.92-1.36-1.38-1.28v-.32l-1.84-.96-1.84-.72-1.84-.48-1.84-.24h-.46l-2.3.08-1.84.48-1.84.64-1.38.96-.46.24-1.38 1.28-.92 1.36-.92 1.44v18.16l-.46.24v.4l-.46.24v.08l-.46.32-.46.24-.46.16H976.86l-.46-.24-.46-.32-.46-.48-.46-.16v-27.68l.46-.48v-.4l.46-.16.46-.24.46-.24.46-.08h.92l.92.24.46.24v.16l.46.32v.48l.46.48V608.16l1.38-1.04 1.84-.8 1.84-.72 2.3-.4 1.84-.32h1.84zm40.94 0l1.84.24 1.84.4 1.84.48 1.84.72 1.84.8 1.38.96.92.88 1.38 1.12 1.38 1.28.92 1.36.92 1.52.46 1.52.46 1.52v1.6l.46.8-.46 1.6v1.6l-.92 1.52-.46 1.52-.92 1.44-.92 1.28-1.38 1.2-.92.56-1.38 1.12-1.38.96-1.84.8-1.84.64-1.84.48-1.84.32-1.84.24h-1.38l-1.84-.08-1.84-.24-1.84-.32-1.84-.56-1.84-.72-1.38-.8-1.84-1.04-.92-.8-1.38-1.12-1.38-1.36-.92-1.36-.92-1.44-.46-1.52-.46-1.6V618.48l.46-1.52.46-1.52.46-1.52.92-1.44 1.38-1.36.92-1.2.92-.56 1.38-1.12 1.84-.96 1.38-.8 1.84-.64 1.84-.48 1.84-.32 1.84-.16 1.38-.08zm-3.68 4.08l-1.84.32-1.84.56-1.38.8-1.84.96-.92.56-.92 1.2-1.38 1.36-.46 1.44-.92 1.52v4l.46 1.6.46 1.44.92 1.44 1.38 1.28.46.56 1.84 1.04 1.38.88 1.84.64 1.84.4 1.84.24h.92l1.84-.08 1.84-.32 1.84-.56 1.84-.72 1.38-1.04.92-.48 1.38-1.2.92-1.36.92-1.44.46-1.52.46-1.6v-.8l-.46-1.6-.46-1.6-.46-1.52-.92-1.36-1.38-1.28-.46-.56-1.84-1.12-1.38-.88-1.84-.64-1.84-.4-1.84-.24h-.92zm73.6-4.08l.92.16.46.32.46.4.46.48v1.44l-12.88 26.24-.46.48-.46.48v.08l-.46.16-.46.16-.46.08h-.46l-.92-.08-.46-.24v-.08l-.46-.4-.46-.48V634l-8.28-14.8-8.28 14.88-.46.56-.46.32v.08l-.46.16-.46.16h-.92l-.46-.16h-.46v-.16l-.46-.16-.46-.24v-.24l-.46-.32-12.88-26.4v-1.28l.46-.48.46-.48.46-.32v-.08l.92-.16h.92l.46.16.46.16.46.4.46.48v.08l10.58 21.76 7.82-14.64.46-.48.92-.4.46-.24.46-.08.46-.08.46.08.92.16v.16l.92.32.46.48v.08l7.82 14.64 10.58-21.76.46-.56.46-.32v-.08l.46-.24.92-.08zm-146.28.16l2.76.72 4.14 1.84.46.32.46.4.46.48.46.4.46.4V611.52l-.46.24-.46.16v.16l-.46.08h-.46l-.46-.08-.46-.16-.46-.16-.46-.32-.92-.24-.46-.4-.46-.32-.46-.16-2.3-.96-1.84-.48-2.3-.16-2.76.24-.92.32-2.3.88-.92.8-.46.24v.32l-.46.48v2l.46.4v.08l.46.32.46.32.92.32v.16l6.44 1.76 6.9 2 3.68 1.6 1.38 1.36.46.4.92 1.52.46 2.08v.08l-.46 1.36v1.2l-.92 1.2-.92 1.2-1.38 1.04-.92.64-1.84.8-1.84.64-2.3.48-2.3.32-1.84.08-3.68-.32-3.22-.72-1.38-.4-3.22-1.28-.46-.4-.46-.4-.92-.4v-.56l-.46-.48v-.64l.46-.32v-.32l.46-.32v-.16l.46-.08.46-.08.46-.08.46.08.46.08.46.16.46.24.46.24.46.16.46.32.46.16 2.76.88 3.22.4 1.84.08 3.22-.4.92-.24 2.3-.88 1.38-.8v-.24l.46-.32v-.4l.46-.48v-1.92l-.46-.4v-.24l-.46-.4-.92-.4-.46-.32-.46-.16-5.52-1.84-6.44-1.44-3.68-1.36-1.84-1.2-.46-.56-1.38-1.36-.46-1.52V613.12l.46-2.48.92-1.44 1.38-1.36 1.84-1.12 1.38-.64 1.84-.64 2.76-.48 3.22-.24h.46zm-129.72.4l1.38.24.46.24 22.08 9.76 1.38.8 1.38 1.04.46 1.12v2.8l-.92 1.2-.92.96-1.38.72-22.08 9.76-.92.32-.92.24-.92.08-1.38-.08-.92-.16-.92-.24-.92-.4-.92-.48-.46-.56-.46-.56-.46-.72-.46-.8v-1.52l.46-.8v-.72l.46-.72.92-.64.46-.48.92-.4 12.42-5.44-12.42-5.44-.92-.48-.46-.56-.92-.64-.46-.64-.46-.8V609.12l.46-.72.46-.64.46-.64.92-.56.46-.48.92-.4 1.38-.24.92-.16h.92zm90.62-.16l1.38.16.92.32.92.4.46.48.92.56.46.56.46.72.46.8v1.52l-.46.8v.72l-.46.72-.92.56-.92.56-.46.4-12.42 5.44 12.42 5.44.92.48.46.56.92.64.46.64v.8l.46.72v1.6l-.46.72-.46.64-.46.64-.92.56-.92.48-.92.4-.92.24-.92.16h-.92l-1.38-.16-.92-.24-.46-.24-22.08-9.76-1.38-.8-1.38-1.04-.46-1.04v-.88l-.46-.4v-.32l.46-.4v-.8l.46-1.2 1.38-.96 1.38-.8 22.08-9.76.92-.32.92-.24.92-.08zm-44.16 5.52l.46.24 9.2 7.04.46.4v3.04l-.46.4-9.2 6.96-.46.32-.92.08h-2.76l-.46-.08-.46-.24-9.2-7.04-.46-.4v-3.04l.46-.4 9.2-7.04.46-.24.46-.08h2.76zm-2.76 6l-.46.24-2.76 2-.46.48V620.48l.46.4 2.76 2.08.46.24.46.08h.46l.46-.08.46-.24 2.76-2.08.46-.4v-.96l-.46-.4-2.76-2.08-.46-.24-.46-.08h-.46zm403.88-16.88l.92.32 1.38.56.92.64.46.88.46 1.04.46 1.2v1.52l-.46 1.04-.92.88-.92.72-.92.56-1.38.4-1.38.16h-.46l-1.38-.16-1.38-.32-.92-.48-.92-.64-.92-.88-.46-1.04-.46-1.2v-.32l.46-1.2.46-1.12.46-.88.92-.72.92-.48 1.38-.4 1.38-.16h.46zm-3.22.96l-1.38.4-.92.56-.46.72-.92.96v2.56l.92.96.46.8.92.56 1.38.4 1.38.08 1.38-.08 1.38-.4.92-.56.92-.8.46-.96v-2.48l-.46-.96-.92-.8-.92-.56-1.38-.4-1.38-.16zm2.76 1.76l.46.32.46.4.46.56v.8l-.46.4-.46.32v.08l.92 1.12v.24h-1.38l-.92-1.12h-1.38v1.12h-1.38v-4.32h2.76zm-2.3.96v1.2h1.38l.46-.16.46-.4-.46-.48-.46-.16zm-387.32-23.52l1.38.4 1.38.56.92.72.92.88.46 1.04v12.16l12.42-5.44.92-.32.92-.24 1.38-.08h.92l.92.16.92.32.92.4.92.48.92.56.46.56.46.72v3.12l-.46.72-.46.72-.46.56-.92.56-.92.4-22.08 9.76-1.38.48-1.84.16h-.46l-1.38-.24-1.38-.4-.92-.64-.92-.88-.92-.88-.46-1.04V583.92l.46-1.04.92-.88.92-.8 1.38-.64.92-.4 1.38-.16h.46zm-23.46 0l1.38.4.92.56 1.38.72.46.96.46.96.46 1.04V605.52l-.46 1.04-.92.88-.92.8-1.38.64-1.38.4-.92.16-1.84-.08-1.38-.4-.46-.16-22.54-9.76-.46-.48-.92-.56-.46-.64-.46-.64-.46-.8-.46-.8v-.8l.46-.72v-.8l.46-.56.92-.64.46-.64.92-.4.92-.4.92-.24.92-.16h1.38l.92.08.92.32.92.24 12.42 5.44V583.92l.46-1.04.46-.88 1.38-.8.92-.64 1.38-.4 1.38-.16h.46z" stroke="#000" stroke-opacity="0" stroke-width=".31" fill="#29b5e8"/><path d="M820 678.67h460v202.66H820z" stroke="#000" stroke-width="2" fill-opacity="0"/><path d="M721.5 791.13h117.88" stroke="#1c274c" stroke-width="3" fill="none"/><path d="M721.54 792.63H717v-.07h2.5l.3-.1.1-.34.1-.95-.08-1.54h1.62z" stroke="#1c274c" stroke-width=".05" fill="#1c274c"/><path d="M855.15 791.13l-14.27 4.63v-9.27z" stroke="#1c274c" stroke-width="3" fill="#fff"/><path d="M938.5 930H781a12 12 0 0 1-12-12V811.75" stroke="#1c274c" stroke-width="3" fill="none"/><path d="M940 929.94l.18 1.56h-1.7v-3h1.6z" stroke="#1c274c" stroke-width=".05" fill="#1c274c"/><path d="M769 795.98l4.63 14.27h-9.26z" stroke="#1c274c" stroke-width="3" fill="#fff"/><path d="M1020.6 930h71.16" stroke="#1c274c" stroke-width="3" fill="none"/><path d="M1004.85 930l14.26-4.63v9.26zM1107.52 930l-14.26 4.63v-9.26z" stroke="#1c274c" stroke-width="3" fill="#fff"/><path d="M921.5 791.33h57.88" stroke="#1c274c" stroke-width="3" fill="none"/><path d="M921.54 792.83H920v-3h1.54z" stroke="#1c274c" stroke-width=".05" fill="#1c274c"/><path d="M995.15 791.33l-14.27 4.64v-9.27z" stroke="#1c274c" stroke-width="3" fill="#fff"/><path d="M1042.23 837.83v4a12 12 0 0 0 12 12h105.15" stroke="#1c274c" stroke-width="3" fill="none"/><path d="M1043.73 837.87h-3v-1.55h1.5l1.5-.07z" stroke="#1c274c" stroke-width=".05" fill="#1c274c"/><path d="M1175.15 853.83l-14.27 4.64v-9.27z" stroke="#1c274c" stroke-width="3" fill="#fff"/><path d="M1085.97 791.33h40.68a5.58 5.58 0 0 1 5.58 5.6 5.58 5.58 0 0 0 5.6 5.57h21.55" stroke="#1c274c" stroke-width="3" fill="none"/><path d="M1086 792.83h-1.53v-3h1.54zm-4.53-2.95v-.05h.05z" stroke="#1c274c" stroke-width=".05" fill="#1c274c"/><path d="M1175.15 802.5l-14.27 4.63v-9.26z" stroke="#1c274c" stroke-width="3" fill="#fff"/><path d="M1225.97 751.17h55.83a4.44 4.44 0 0 1 4.43 4.43 4.44 4.44 0 0 0 4.44 4.44h36.7" stroke="#1c274c" stroke-width="3" fill="none"/><path d="M1226 752.67h-1.53v-3h1.54z" stroke="#1c274c" stroke-width=".05" fill="#1c274c"/><path d="M1343.15 760.04l-14.27 4.63v-9.26z" stroke="#1c274c" stroke-width="3" fill="#fff"/><path d="M1225.97 853.83h26.5a12 12 0 0 1 12 12v69.72a12 12 0 0 0 12 12H1378a12 12 0 0 0 12-12v-7.38" stroke="#1c274c" stroke-width="3" fill="none"/><path d="M1226 855.33h-1.53v-3.01h1.54z" stroke="#1c274c" stroke-width=".05" fill="#1c274c"/><path d="M1390 912.4l4.63 14.27h-9.27z" stroke="#1c274c" stroke-width="3" fill="#fff"/><path d="M1225.97 802.5h50.68a5.58 5.58 0 0 0 5.58-5.58 5.58 5.58 0 0 1 5.6-5.6h31.55" stroke="#1c274c" stroke-width="3" fill="none"/><path d="M1226 804h-1.53v-3h1.54z" stroke="#1c274c" stroke-width=".05" fill="#1c274c"/><path d="M1335.15 791.33l-14.27 4.64v-9.27z" stroke="#1c274c" stroke-width="3" fill="#fff"/><path d="M1043.73 746.33h115.73" stroke="#1c274c" stroke-width="3" fill="none"/><path stroke="#1c274c" stroke-width=".05" fill="#1c274c"/><path d="M1175.22 746.33l-14.26 4.64v-9.27z" stroke="#1c274c" stroke-width="3" fill="#fff"/><path d="M620 722.08h100V762H620z" fill="none"/><use xlink:href="#c" transform="matrix(1,0,0,1,620,722.0803481754269) translate(19.550000000000004 23.599999999999998)"/><path d="M840 684.46h100v37.62H840z" fill="none"/><use xlink:href="#d" transform="matrix(1,0,0,1,840,684.4568407543802) translate(29.525000000000006 22.599999999999998)"/><path d="M984.3 691.57h123.63v25.7H984.3z" fill="none"/><use xlink:href="#e" transform="matrix(1,0,0,1,984.308681219758,691.5740361008816) translate(13.925000000000011 14.399999999999995)"/><use xlink:href="#f" transform="matrix(1,0,0,1,984.308681219758,691.5740361008816) translate(62 35.999999999999986)"/><path d="M1152.23 691.17h100v25.68h-100z" fill="none"/><use xlink:href="#g" transform="matrix(1,0,0,1,1152.234724879032,691.1666666666666) translate(26.05000000000001 14.399999999999995)"/><use xlink:href="#f" transform="matrix(1,0,0,1,1152.234724879032,691.1666666666666) translate(50 35.999999999999986)"/><path d="M1270 686.4h240v29.58h-240z" fill="none"/><use xlink:href="#h" transform="matrix(1,0,0,1,1270,686.4012282390358) translate(80.07500000000002 14.399999999999995)"/><use xlink:href="#f" transform="matrix(1,0,0,1,1270,686.4012282390358) translate(120 35.999999999999986)"/><path d="M920 978.67h100v39.92H920z" fill="none"/><use xlink:href="#i" transform="matrix(1,0,0,1,920,978.6666666666666) translate(-15.324999999999974 23.599999999999998)"/><path d="M1096.16 978.67h100v39.92h-100z" fill="none"/><use xlink:href="#j" transform="matrix(1,0,0,1,1096.1604077021957,978.6666666666666) translate(17.55000000000001 14.399999999999995)"/><use xlink:href="#k" transform="matrix(1,0,0,1,1096.1604077021957,978.6666666666666) translate(18.12500000000001 35.999999999999986)"/><path d="M720 771.17h100v17.58H720z" fill="none"/><g><use xlink:href="#l" transform="matrix(1,0,0,1,720,771.1666666666666) translate(35.14259259259261 12.622222222222216)"/></g><defs><linearGradient gradientUnits="userSpaceOnUse" id="a" x1="945.04" y1="904.65" x2="976.01" y2="935.6"><stop offset="0%" stop-color="#387eb8"/><stop offset="100%" stop-color="#366994"/></linearGradient><linearGradient gradientUnits="userSpaceOnUse" id="b" x1="963.42" y1="923.83" x2="996.68" y2="955.57"><stop offset="0%" stop-color="#ffe052"/><stop offset="100%" stop-color="#ffc331"/></linearGradient><path fill="#4c535d" d="M169-182c-1-43-94-46-97-3 18 66 151 10 154 114 3 95-165 93-204 36-6-8-10-19-12-30l50-8c3 46 112 56 116 5-17-69-150-10-154-114-4-87 153-88 188-35 5 8 8 18 10 28" id="m"/><path fill="#4c535d" d="M110-194c64 0 96 36 96 99 0 64-35 99-97 99-61 0-95-36-95-99 0-62 34-99 96-99zm-1 164c35 0 45-28 45-65 0-40-10-65-43-65-34 0-45 26-45 65 0 36 10 65 43 65" id="n"/><path fill="#4c535d" d="M85 4C-2 5 27-109 22-190h50c7 57-23 150 33 157 60-5 35-97 40-157h50l1 190h-47c-2-12 1-28-3-38-12 25-28 42-61 42" id="o"/><path fill="#4c535d" d="M135-150c-39-12-60 13-60 57V0H25l-1-190h47c2 13-1 29 3 40 6-28 27-53 61-41v41" id="p"/><path fill="#4c535d" d="M190-63c-7 42-38 67-86 67-59 0-84-38-90-98-12-110 154-137 174-36l-49 2c-2-19-15-32-35-32-30 0-35 28-38 64-6 74 65 87 74 30" id="q"/><path fill="#4c535d" d="M185-48c-13 30-37 53-82 52C43 2 14-33 14-96s30-98 90-98c62 0 83 45 84 108H66c0 31 8 55 39 56 18 0 30-7 34-22zm-45-69c5-46-57-63-70-21-2 6-4 13-4 21h74" id="r"/><g id="c"><use transform="matrix(0.04999999999999998,0,0,0.04999999999999998,0,0)" xlink:href="#m"/><use transform="matrix(0.04999999999999998,0,0,0.04999999999999998,11.999999999999996,0)" xlink:href="#n"/><use transform="matrix(0.04999999999999998,0,0,0.04999999999999998,22.949999999999992,0)" xlink:href="#o"/><use transform="matrix(0.04999999999999998,0,0,0.04999999999999998,33.89999999999999,0)" xlink:href="#p"/><use transform="matrix(0.04999999999999998,0,0,0.04999999999999998,40.89999999999999,0)" xlink:href="#q"/><use transform="matrix(0.04999999999999998,0,0,0.04999999999999998,50.89999999999999,0)" xlink:href="#r"/></g><path fill="#4c535d" d="M24 0v-248h52v208h133V0H24" id="s"/><path fill="#4c535d" d="M133-34C117-15 103 5 69 4 32 3 11-16 11-54c-1-60 55-63 116-61 1-26-3-47-28-47-18 1-26 9-28 27l-52-2c7-38 36-58 82-57s74 22 75 68l1 82c-1 14 12 18 25 15v27c-30 8-71 5-69-32zm-48 3c29 0 43-24 42-57-32 0-66-3-65 30 0 17 8 27 23 27" id="t"/><path fill="#4c535d" d="M147 0L96-86 75-71V0H25v-261h50v150l67-79h53l-66 74L201 0h-54" id="u"/><g id="d"><use transform="matrix(0.04999999999999998,0,0,0.04999999999999998,0,0)" xlink:href="#s"/><use transform="matrix(0.04999999999999998,0,0,0.04999999999999998,10.949999999999996,0)" xlink:href="#t"/><use transform="matrix(0.04999999999999998,0,0,0.04999999999999998,20.949999999999992,0)" xlink:href="#u"/><use transform="matrix(0.04999999999999998,0,0,0.04999999999999998,30.94999999999999,0)" xlink:href="#r"/></g><path fill="#4c535d" d="M275 0h-61l-44-196L126 0H64L0-248h53L97-49l45-199h58l43 199 44-199h52" id="v"/><path fill="#4c535d" d="M114-157C55-157 80-60 75 0H25v-261h50l-1 109c12-26 28-41 61-42 86-1 58 113 63 194h-50c-7-57 23-157-34-157" id="w"/><path fill="#4c535d" d="M137-138c1-29-70-34-71-4 15 46 118 7 119 86 1 83-164 76-172 9l43-7c4 19 20 25 44 25 33 8 57-30 24-41C81-84 22-81 20-136c-2-80 154-74 161-7" id="x"/><g id="e"><use transform="matrix(0.04999999999999998,0,0,0.04999999999999998,0,0)" xlink:href="#v"/><use transform="matrix(0.04999999999999998,0,0,0.04999999999999998,16.299999999999994,0)" xlink:href="#t"/><use transform="matrix(0.04999999999999998,0,0,0.04999999999999998,26.29999999999999,0)" xlink:href="#p"/><use transform="matrix(0.04999999999999998,0,0,0.04999999999999998,33.29999999999999,0)" xlink:href="#r"/><use transform="matrix(0.04999999999999998,0,0,0.04999999999999998,43.29999999999998,0)" xlink:href="#w"/><use transform="matrix(0.04999999999999998,0,0,0.04999999999999998,54.24999999999998,0)" xlink:href="#n"/><use transform="matrix(0.04999999999999998,0,0,0.04999999999999998,65.19999999999997,0)" xlink:href="#o"/><use transform="matrix(0.04999999999999998,0,0,0.04999999999999998,76.14999999999998,0)" xlink:href="#x"/><use transform="matrix(0.04999999999999998,0,0,0.04999999999999998,86.14999999999998,0)" xlink:href="#r"/></g><path fill="#4c535d" d="M230 0l2-204L168 0h-37L68-204 70 0H24v-248h70l56 185 57-185h69V0h-46" id="y"/><path fill="#4c535d" d="M115-3C79 11 28 4 28-45v-112H4v-33h27l15-45h31v45h36v33H77v99c-1 23 16 31 38 25v30" id="z"/><g id="g"><use transform="matrix(0.04999999999999998,0,0,0.04999999999999998,0,0)" xlink:href="#y"/><use transform="matrix(0.04999999999999998,0,0,0.04999999999999998,14.949999999999994,0)" xlink:href="#t"/><use transform="matrix(0.04999999999999998,0,0,0.04999999999999998,24.94999999999999,0)" xlink:href="#p"/><use transform="matrix(0.04999999999999998,0,0,0.04999999999999998,31.94999999999998,0)" xlink:href="#z"/><use transform="matrix(0.04999999999999998,0,0,0.04999999999999998,37.899999999999984,0)" xlink:href="#x"/></g><path fill="#4c535d" d="M199 0l-22-63H83L61 0H9l90-248h61L250 0h-51zm-33-102l-36-108c-10 38-24 72-36 108h72" id="A"/><path fill="#4c535d" d="M135-194c87-1 58 113 63 194h-50c-7-57 23-157-34-157-59 0-34 97-39 157H25l-1-190h47c2 12-1 28 3 38 12-26 28-41 61-42" id="B"/><path fill="#4c535d" d="M25 0v-261h50V0H25" id="C"/><path fill="#4c535d" d="M123 10C108 53 80 86 19 72V37c35 8 53-11 59-39L3-190h52l48 148c12-52 28-100 44-148h51" id="D"/><path fill="#4c535d" d="M25-224v-37h50v37H25zM25 0v-190h50V0H25" id="E"/><g id="h"><use transform="matrix(0.04999999999999998,0,0,0.04999999999999998,0,0)" xlink:href="#A"/><use transform="matrix(0.04999999999999998,0,0,0.04999999999999998,12.949999999999996,0)" xlink:href="#B"/><use transform="matrix(0.04999999999999998,0,0,0.04999999999999998,23.89999999999999,0)" xlink:href="#t"/><use transform="matrix(0.04999999999999998,0,0,0.04999999999999998,33.89999999999999,0)" xlink:href="#C"/><use transform="matrix(0.04999999999999998,0,0,0.04999999999999998,38.89999999999999,0)" xlink:href="#D"/><use transform="matrix(0.04999999999999998,0,0,0.04999999999999998,48.89999999999999,0)" xlink:href="#z"/><use transform="matrix(0.04999999999999998,0,0,0.04999999999999998,54.849999999999994,0)" xlink:href="#E"/><use transform="matrix(0.04999999999999998,0,0,0.04999999999999998,59.84999999999999,0)" xlink:href="#q"/><use transform="matrix(0.04999999999999998,0,0,0.04999999999999998,69.84999999999998,0)" xlink:href="#x"/></g><path fill="#4c535d" d="M136-208V0H84v-208H4v-40h212v40h-80" id="F"/><path fill="#4c535d" d="M121-226c-27-7-43 5-38 36h38v33H83V0H34v-157H6v-33h28c-9-59 32-81 87-68v32" id="G"/><path fill="#4c535d" d="M220-157c-53 9-28 100-34 157h-49v-107c1-27-5-49-29-50C55-147 81-57 75 0H25l-1-190h47c2 12-1 28 3 38 10-53 101-56 108 0 13-22 24-43 59-42 82 1 51 116 57 194h-49v-107c-1-25-5-48-29-50" id="H"/><g id="i"><use transform="matrix(0.04999999999999998,0,0,0.04999999999999998,0,0)" xlink:href="#F"/><use transform="matrix(0.04999999999999998,0,0,0.04999999999999998,9.949999999999996,0)" xlink:href="#p"/><use transform="matrix(0.04999999999999998,0,0,0.04999999999999998,16.949999999999992,0)" xlink:href="#t"/><use transform="matrix(0.04999999999999998,0,0,0.04999999999999998,26.94999999999999,0)" xlink:href="#B"/><use transform="matrix(0.04999999999999998,0,0,0.04999999999999998,37.899999999999984,0)" xlink:href="#x"/><use transform="matrix(0.04999999999999998,0,0,0.04999999999999998,47.89999999999998,0)" xlink:href="#G"/><use transform="matrix(0.04999999999999998,0,0,0.04999999999999998,53.849999999999966,0)" xlink:href="#n"/><use transform="matrix(0.04999999999999998,0,0,0.04999999999999998,64.79999999999997,0)" xlink:href="#p"/><use transform="matrix(0.04999999999999998,0,0,0.04999999999999998,71.79999999999997,0)" xlink:href="#H"/><use transform="matrix(0.04999999999999998,0,0,0.04999999999999998,87.79999999999997,0)" xlink:href="#t"/><use transform="matrix(0.04999999999999998,0,0,0.04999999999999998,97.79999999999997,0)" xlink:href="#z"/><use transform="matrix(0.04999999999999998,0,0,0.04999999999999998,103.74999999999996,0)" xlink:href="#E"/><use transform="matrix(0.04999999999999998,0,0,0.04999999999999998,108.74999999999996,0)" xlink:href="#n"/><use transform="matrix(0.04999999999999998,0,0,0.04999999999999998,119.69999999999996,0)" xlink:href="#B"/></g><path fill="#4c535d" d="M147 0H94L2-248h55l64 206c17-72 42-137 63-206h54" id="I"/><g id="j"><use transform="matrix(0.04999999999999998,0,0,0.04999999999999998,0,0)" xlink:href="#I"/><use transform="matrix(0.04999999999999998,0,0,0.04999999999999998,10.999999999999996,0)" xlink:href="#r"/><use transform="matrix(0.04999999999999998,0,0,0.04999999999999998,20.999999999999993,0)" xlink:href="#p"/><use transform="matrix(0.04999999999999998,0,0,0.04999999999999998,27.99999999999999,0)" xlink:href="#x"/><use transform="matrix(0.04999999999999998,0,0,0.04999999999999998,37.999999999999986,0)" xlink:href="#E"/><use transform="matrix(0.04999999999999998,0,0,0.04999999999999998,42.999999999999986,0)" xlink:href="#n"/><use transform="matrix(0.04999999999999998,0,0,0.04999999999999998,53.94999999999998,0)" xlink:href="#B"/></g><path fill="#4c535d" d="M67-125c0 53 21 87 73 88 37 1 54-22 65-47l45 17C233-25 199 4 140 4 58 4 20-42 15-125 8-235 124-281 211-232c18 10 29 29 36 50l-46 12c-8-25-30-41-62-41-52 0-71 34-72 86" id="J"/><g id="k"><use transform="matrix(0.04999999999999998,0,0,0.04999999999999998,0,0)" xlink:href="#J"/><use transform="matrix(0.04999999999999998,0,0,0.04999999999999998,12.949999999999996,0)" xlink:href="#n"/><use transform="matrix(0.04999999999999998,0,0,0.04999999999999998,23.89999999999999,0)" xlink:href="#B"/><use transform="matrix(0.04999999999999998,0,0,0.04999999999999998,34.84999999999999,0)" xlink:href="#z"/><use transform="matrix(0.04999999999999998,0,0,0.04999999999999998,40.79999999999998,0)" xlink:href="#p"/><use transform="matrix(0.04999999999999998,0,0,0.04999999999999998,47.79999999999998,0)" xlink:href="#n"/><use transform="matrix(0.04999999999999998,0,0,0.04999999999999998,58.74999999999998,0)" xlink:href="#C"/></g><path fill="#4c535d" d="M6 0l48-248h195l-8 40H98l-12 63h132l-7 40H79L66-40h150l-8 40H6" id="K"/><path fill="#4c535d" d="M157-208L117 0H65l40-208H25l8-40h212l-8 40h-80" id="L"/><path fill="#4c535d" d="M6 0l48-248h52L66-40h133l-8 40H6" id="M"/><g id="l"><use transform="matrix(0.043827160493827136,0,0,0.043827160493827136,0,0)" xlink:href="#K"/><use transform="matrix(0.043827160493827136,0,0,0.043827160493827136,10.518518518518512,0)" xlink:href="#L"/><use transform="matrix(0.043827160493827136,0,0,0.043827160493827136,20.116666666666653,0)" xlink:href="#M"/></g></defs></g></svg>